{"title":"The Man Without a Past aka Mies vailla menneisyyttÃƒÂ¤.Multi_Sub.m","uid":5224902,"size":1473394657,"categoryP":"video","categoryS":"movies","magnet":"?xt=urn:btih:0942a48718384e84122c1d223f8acb0b993fe61e&amp;dn=The+Man+Without+a+Past+aka+Mies+vailla+menneisyytt%C3%83%C2%A4.Multi_Sub.m&amp;tr=udp%3A%2F%2Ftracker.openbittorrent.com%3A80&amp;tr=udp%3A%2F%2Fopen.demonii.com%3A1337&amp;tr=udp%3A%2F%2Ftracker.coppersurfer.tk%3A6969&amp;tr=udp%3A%2F%2Fexodus.desync.com%3A6969","seeders":4,"leechers":1,"uploader":"Zen_Bud","files":-1,"time":1261079639,"description":"Complete name                    : The Man Without a Past aka Mies vailla menneisyyttÃƒÂ¤ .mkv\nFormat                           : Matroska\nFile size                        : 1.37 GiB\nDuration                         : 1h 32mn\nOverall bit rate                 : 2 118 Kbps\n\n\nVideo\nID                               : 1\nFormat                           : AVC\n\nCodec ID                         : V_MPEG4/ISO/AVC\nDuration                         : 1h 32mn\nBit rate                         : 1 880 Kbps\nNominal bit rate                 : 1 914 Kbps\nWidth                            : 718 pixels\nHeight                           : 554 pixels\nDisplay aspect ratio             : 16/9\nFrame rate                       : 25.000 fps\nResolution                       : 24 bits\nColorimetry                      : 4:2:0\nScan type                        : Progressive\nBits/(Pixel*Frame)               : 0.189\nStream size                      : 1.22 GiB (89%)\nWriting library                  : x264 core 79\n\nAudio\nID                               : 2\nFormat                           : MPEG Audio\nFormat version                   : Version 1\nFormat profile                   : Layer 3\nCodec ID                         : A_MPEG/L3\nCodec ID/Hint                    : MP3\nDuration                         : 1h 32mn\nBit rate mode                    : Constant\nBit rate                         : 192 Kbps\nChannel(s)                       : 2 channels\nSampling rate                    : 48.0 KHz\nResolution                       : 16 bits\nStream size                      : 127 MiB (9%)\nLanguage                         : Finnish\n\nText #1\nLanguage                         : Danish\n\nText #2\nLanguage                         : Swedish\n\nText #3\nLanguage                         : Norwegian\n\nText #4\nLanguage                         : English\n\n &lt;a href=&quot;\nhttp://en.wikipedia.org/wiki/The_Man_Without_a_Past&quot; rel=&quot;nofollow&quot; target=&quot;_NEW&quot;&gt;\nhttp://en.wikipedia.org/wiki/The_Man_Without_a_Past&lt;/a&gt;","torrent":{"xt":"urn:btih:0942a48718384e84122c1d223f8acb0b993fe61e","amp;dn":"The+Man+Without+a+Past+aka+Mies+vailla+menneisyytt%C3%83%C2%A4.Multi_Sub.m","amp;tr":["udp%3A%2F%2Ftracker.openbittorrent.com%3A80","udp%3A%2F%2Fopen.demonii.com%3A1337","udp%3A%2F%2Ftracker.coppersurfer.tk%3A6969","udp%3A%2F%2Fexodus.desync.com%3A6969"],"infoHash":"0942a48718384e84122c1d223f8acb0b993fe61e","infoHashBuffer":{"type":"Buffer","data":[9,66,164,135,24,56,78,132,18,44,29,34,63,138,203,11,153,63,230,30]},"announce":[],"urlList":[]}}